<svg version="1.1" id="Layer_1" xmlns="http://www.w3.org/2000/svg" xmlns:xlink="http://www.w3.org/1999/xlink" x="0px" y="0px"
	 width="100%" viewBox="0 0 358 358" enable-background="new 0 0 358 358" xml:space="preserve">
<path fill="#FFFFFF" opacity="1.000000" stroke="none" 
	d="
M359.000000,187.000000 
	C359.000000,244.259918 359.000000,301.519836 359.000000,359.000000 
	C302.645966,359.000000 246.291641,359.000000 189.645538,358.601685 
	C196.515594,357.470184 203.718521,357.011871 210.830948,355.948242 
	C227.184784,353.502625 242.694473,348.286133 257.568176,341.083008 
	C271.058960,334.549591 283.905884,327.000427 294.803650,316.611542 
	C303.635773,308.191895 312.848572,299.991974 320.513885,290.572662 
	C330.394440,278.431183 338.363464,264.897278 344.387146,250.274979 
	C352.104309,231.541885 357.206940,212.273575 358.034393,191.956665 
	C358.102112,190.294098 358.666443,188.651749 359.000000,187.000000 
z"/>
<path fill="#FFFFFF" opacity="1.000000" stroke="none" 
	d="
M192.000000,1.000000 
	C247.594742,1.000000 303.189484,1.000000 359.000000,1.000000 
	C359.000000,58.020714 359.000000,115.041695 358.601105,172.353088 
	C356.611145,160.718369 355.864899,148.604065 353.246124,136.909088 
	C348.387817,115.212776 338.955109,95.434761 326.115204,77.159172 
	C313.996918,59.910744 299.460999,45.057648 282.275330,33.182270 
	C258.648621,16.856100 232.590225,6.046388 203.701385,2.961572 
	C199.775864,2.542397 195.899261,1.665152 192.000000,1.000000 
z"/>
<path fill="#FFFFFF" opacity="1.000000" stroke="none" 
	d="
M170.000000,359.000000 
	C113.740524,359.000000 57.481052,359.000000 1.000000,359.000000 
	C1.000000,304.312653 1.000000,249.624985 1.395078,194.642471 
	C2.372918,207.407410 5.040966,220.045990 8.805954,232.557755 
	C14.729291,252.242142 24.024523,270.107941 36.102146,286.676147 
	C44.784126,298.586151 54.683723,309.366852 66.167160,318.485535 
	C78.071815,327.938690 90.881935,336.135010 104.836563,342.408813 
	C121.126991,349.732758 137.959183,355.064697 155.784653,357.023621 
	C160.538086,357.545990 165.262344,358.333954 170.000000,359.000000 
z"/>
<path fill="#FFFFFF" opacity="1.000000" stroke="none" 
	d="
M1.000000,165.000000 
	C1.000000,110.405876 1.000000,55.811756 1.000000,1.000000 
	C56.020702,1.000000 111.041695,1.000000 166.361053,1.397105 
	C159.199432,2.636271 151.613281,2.883362 144.303375,4.433316 
	C123.394882,8.866646 103.710396,16.441561 85.437683,27.807077 
	C68.152046,38.558640 52.969643,51.657471 40.353481,67.469780 
	C30.302704,80.066788 21.701487,93.705803 15.550101,108.801407 
	C9.620276,123.353302 4.755424,138.123444 2.962733,153.809357 
	C2.533479,157.565292 1.665955,161.271118 1.000000,165.000000 
z"/>
<path fill="#2A2A29" opacity="1.000000" stroke="none" 
	d="
M1.000000,165.468658 
	C1.665955,161.271118 2.533479,157.565292 2.962733,153.809357 
	C4.755424,138.123444 9.620276,123.353302 15.550101,108.801407 
	C21.701487,93.705803 30.302704,80.066788 40.353481,67.469780 
	C52.969643,51.657471 68.152046,38.558640 85.437683,27.807077 
	C103.710396,16.441561 123.394882,8.866646 144.303375,4.433316 
	C151.613281,2.883362 159.199432,2.636271 166.829712,1.397105 
	C175.020905,1.000000 183.041809,1.000000 191.531357,1.000000 
	C195.899261,1.665152 199.775864,2.542397 203.701385,2.961572 
	C232.590225,6.046388 258.648621,16.856100 282.275330,33.182270 
	C299.460999,45.057648 313.996918,59.910744 326.115204,77.159172 
	C338.955109,95.434761 348.387817,115.212776 353.246124,136.909088 
	C355.864899,148.604065 356.611145,160.718369 358.601105,172.821747 
	C359.000000,177.356903 359.000000,181.713806 359.000000,186.535355 
	C358.666443,188.651749 358.102112,190.294098 358.034393,191.956665 
	C357.206940,212.273575 352.104309,231.541885 344.387146,250.274979 
	C338.363464,264.897278 330.394440,278.431183 320.513885,290.572662 
	C312.848572,299.991974 303.635773,308.191895 294.803650,316.611542 
	C283.905884,327.000427 271.058960,334.549591 257.568176,341.083008 
	C242.694473,348.286133 227.184784,353.502625 210.830948,355.948242 
	C203.718521,357.011871 196.515594,357.470184 189.176880,358.601685 
	C182.978851,359.000000 176.957703,359.000000 170.468277,359.000000 
	C165.262344,358.333954 160.538086,357.545990 155.784653,357.023621 
	C137.959183,355.064697 121.126991,349.732758 104.836563,342.408813 
	C90.881935,336.135010 78.071815,327.938690 66.167160,318.485535 
	C54.683723,309.366852 44.784126,298.586151 36.102146,286.676147 
	C24.024523,270.107941 14.729291,252.242142 8.805954,232.557755 
	C5.040966,220.045990 2.372918,207.407410 1.395078,194.173813 
	C1.000000,184.645767 1.000000,175.291550 1.000000,165.468658 
M19.478148,107.042587 
	C4.624608,139.880554 0.437963,174.242371 6.241127,209.600006 
	C11.515596,241.736374 25.121223,270.407837 46.600807,294.904114 
	C63.510094,314.188171 83.460396,329.735718 107.201019,340.143982 
	C134.733566,352.214661 163.209351,357.756989 193.373337,355.181396 
	C210.043396,353.758057 226.085022,350.364655 241.710648,344.619049 
	C263.187927,336.721649 282.227814,324.781769 299.041779,309.369781 
	C311.212860,298.213623 321.535400,285.461792 330.155212,271.333984 
	C346.699524,244.217972 354.950836,214.644333 355.857147,183.059036 
	C356.112091,174.174210 354.886047,165.218689 353.964844,156.334412 
	C352.206146,139.373703 347.409027,123.207321 340.333557,107.727539 
	C328.164703,81.104317 310.585876,58.766739 287.386505,40.824200 
	C258.713074,18.647995 226.212830,6.409146 190.188492,4.135483 
	C166.306976,2.628210 142.967224,6.212340 120.289352,14.292790 
	C95.920250,22.975857 74.624352,36.532127 56.249828,54.456394 
	C40.933002,69.397896 28.791542,86.837425 19.478148,107.042587 
z"/>
<path fill="#2B422C" opacity="1.000000" stroke="none" 
	d="
M19.654821,106.708229 
	C28.791542,86.837425 40.933002,69.397896 56.249828,54.456394 
	C74.624352,36.532127 95.920250,22.975857 120.289352,14.292790 
	C142.967224,6.212340 166.306976,2.628210 190.188492,4.135483 
	C226.212830,6.409146 258.713074,18.647995 287.386505,40.824200 
	C310.585876,58.766739 328.164703,81.104317 340.333557,107.727539 
	C347.409027,123.207321 352.206146,139.373703 353.964844,156.334412 
	C354.886047,165.218689 356.112091,174.174210 355.857147,183.059036 
	C354.950836,214.644333 346.699524,244.217972 330.155212,271.333984 
	C321.535400,285.461792 311.212860,298.213623 299.041779,309.369781 
	C282.227814,324.781769 263.187927,336.721649 241.710648,344.619049 
	C226.085022,350.364655 210.043396,353.758057 193.373337,355.181396 
	C163.209351,357.756989 134.733566,352.214661 107.201019,340.143982 
	C83.460396,329.735718 63.510094,314.188171 46.600807,294.904114 
	C25.121223,270.407837 11.515596,241.736374 6.241127,209.600006 
	C0.437963,174.242371 4.624608,139.880554 19.654821,106.708229 
M187.397049,178.995850 
	C186.871887,179.083160 186.346725,179.170456 185.821564,179.257767 
	C185.890015,179.469635 185.958466,179.681519 186.026917,179.893387 
	C186.688339,179.598480 187.349762,179.303574 188.286499,178.893555 
	C188.188095,178.925323 188.089691,178.957092 187.397049,178.995850 
M141.023819,108.526810 
	C141.187881,108.786545 141.351929,109.046272 141.515991,109.306007 
	C141.678558,108.871895 141.841110,108.437782 142.595016,107.934082 
	C142.926361,106.822701 143.257690,105.711319 143.589035,104.599937 
	C143.199844,104.529961 142.810638,104.459976 142.421432,104.389999 
	C142.279739,105.592110 142.138031,106.794228 141.512970,107.990356 
	C141.512970,107.990356 141.029907,107.969864 141.015457,107.376892 
	C140.921677,106.854782 140.827896,106.332672 140.734131,105.810555 
	C140.521805,105.878700 140.309479,105.946838 140.097153,106.014984 
	C140.388321,106.686600 140.679474,107.358208 141.023819,108.526810 
M133.186569,108.982353 
	C127.986137,111.388367 122.363152,113.162582 117.658165,116.309380 
	C96.891235,130.198776 96.854477,149.985596 117.711052,163.812759 
	C123.184464,167.441437 129.852844,169.267654 136.094986,172.641541 
	C141.074280,176.152618 142.952362,176.237000 143.621933,173.670578 
	C141.004791,172.763138 138.482483,171.888596 135.312180,170.772644 
	C129.194672,166.300385 122.339447,162.546204 117.127792,157.192184 
	C108.732033,148.567062 107.917595,137.619019 113.463531,127.824280 
	C117.435005,120.810219 123.532181,116.037300 130.323837,111.989853 
	C131.653534,111.197426 132.751846,110.016762 134.463730,109.184990 
	C134.888321,109.012672 135.312927,108.840355 135.737518,108.668037 
	C135.434830,108.336761 135.132156,108.005486 134.829468,107.674210 
	C134.546188,108.128860 134.262909,108.583511 133.186569,108.982353 
M218.905853,107.221611 
	C218.272720,106.867188 217.639572,106.512764 217.006454,106.158333 
	C217.261658,106.742455 217.516861,107.326576 217.989914,108.622498 
	C223.727386,112.224304 230.109131,115.107674 235.079422,119.564941 
	C249.031189,132.076630 248.816315,148.749817 234.640930,161.048981 
	C229.232895,165.741226 222.708405,169.146698 217.039932,172.908173 
	C217.262161,172.918961 218.282028,173.247681 219.088181,172.965591 
	C230.707367,168.900238 241.588974,163.596329 248.914719,153.156815 
	C253.877548,146.084534 255.034943,138.195251 250.859726,130.511063 
	C244.007095,117.899261 232.561295,111.253181 218.905853,107.221611 
M144.658340,101.051399 
	C144.279617,101.290474 143.865753,101.493027 143.549576,101.797127 
	C143.480103,101.863945 143.757751,102.291672 143.875549,102.553200 
	C144.341156,102.201378 144.806778,101.849548 145.284912,100.875481 
	C149.450882,94.513763 152.859604,87.456444 157.935486,81.930527 
	C169.645294,69.182526 185.434814,69.158005 197.269821,81.743286 
	C202.483704,87.287689 206.305298,94.141373 210.759018,100.400635 
	C209.869797,99.183830 210.289215,97.113426 209.494751,95.750786 
	C204.930420,87.922409 201.075409,79.361725 195.101974,72.744591 
	C184.846695,61.384201 170.924561,61.930222 159.925842,72.675697 
	C152.489517,79.940804 148.191574,89.086258 144.731644,98.683601 
	C144.506393,99.308472 145.097717,100.227715 144.658340,101.051399 
M144.377838,180.124832 
	C147.728943,190.637207 152.419037,200.421295 160.591644,208.085846 
	C167.432770,214.501694 175.547745,218.040237 184.701401,214.243362 
	C199.429031,208.134430 206.279663,195.559341 210.362961,180.426529 
	C210.802826,179.965591 211.242691,179.504654 211.682556,179.043732 
	C211.413727,178.819656 211.144882,178.595581 210.876053,178.371521 
	C210.239792,179.213226 209.603546,180.054947 208.781189,181.580185 
	C204.425293,187.765305 200.863281,194.761063 195.547989,199.966537 
	C184.540482,210.746613 169.971054,210.579865 159.273071,199.473770 
	C153.892883,193.888336 150.378922,186.505264 145.940079,179.349106 
	C145.220001,178.741379 144.499924,178.133652 143.779831,177.525925 
	C143.609970,177.732452 143.440094,177.938965 143.270233,178.145493 
	C143.830093,178.668793 144.389969,179.192078 144.377838,180.124832 
M181.044449,108.116638 
	C180.787262,108.176445 180.530075,108.236244 180.272888,108.296051 
	C180.495407,108.549126 180.717926,108.802208 181.107285,109.750908 
	C187.640411,118.216293 184.994431,128.305511 186.041977,138.057556 
	C180.862534,134.339828 176.267288,130.204849 171.625137,126.123177 
	C168.508423,123.382774 165.506866,120.458160 162.121262,118.091644 
	C158.675934,115.683357 155.348251,117.181000 152.793472,119.921852 
	C150.389542,122.500870 150.773376,124.835632 153.392548,127.596474 
	C155.956528,130.299103 157.714462,133.847260 159.460022,137.214142 
	C160.456985,139.137115 160.722977,141.439056 161.318085,143.570358 
	C160.863678,143.706635 160.409286,143.842911 159.954895,143.979172 
	C157.286423,140.237976 154.617966,136.496780 151.949509,132.755585 
	C150.991241,138.667007 150.835114,144.075150 151.030731,149.470535 
	C151.275742,156.228424 154.320419,161.781921 159.953293,165.357742 
	C164.638733,168.332092 169.868362,170.449173 175.361984,172.958282 
	C175.664566,172.868042 175.967148,172.777802 176.269730,172.687546 
	C175.914474,172.457825 175.559204,172.228104 174.873688,171.367569 
	C170.620667,167.032547 170.187439,161.591919 169.836380,155.882629 
	C169.541199,151.081818 168.140732,146.348969 167.722153,141.216248 
	C167.874100,141.078186 168.026047,140.940125 168.808807,141.034317 
	C175.376038,146.927856 181.931824,152.834244 188.519897,158.704391 
	C189.881454,159.917572 191.254623,161.179520 192.811264,162.099548 
	C196.470016,164.262024 199.956467,163.502335 202.750427,160.562592 
	C205.643784,157.518250 203.881927,155.144821 201.414276,152.606918 
	C199.367081,150.501450 197.705292,147.868637 196.436615,145.201279 
	C195.140686,142.476608 194.531784,139.425156 193.622131,136.516754 
	C194.049194,136.376099 194.476257,136.235443 194.903320,136.094772 
	C197.708801,139.885513 200.514282,143.676254 203.319763,147.466980 
	C204.459381,141.731277 204.698929,136.632767 204.405716,131.565063 
	C203.912033,123.032341 199.476898,116.888084 191.965836,113.022331 
	C188.583191,111.281364 185.003876,109.922531 181.044449,108.116638 
M123.962349,262.593994 
	C124.417366,268.948395 127.208542,272.078094 132.384048,272.037079 
	C137.148270,271.999329 140.349930,268.966980 140.809723,264.057007 
	C141.296539,258.858429 138.633072,254.949142 134.006851,254.072098 
	C128.996811,253.122314 125.405556,255.878479 123.962349,262.593994 
M183.536331,247.003998 
	C183.027496,247.488922 182.081177,247.968582 182.075272,248.459534 
	C181.982178,256.220795 182.009842,263.983490 182.009842,271.745880 
	C182.586868,271.931122 183.163895,272.116364 183.740921,272.301605 
	C184.681442,269.301544 185.621964,266.301483 186.739258,262.737549 
	C193.705566,271.687286 193.705566,271.687286 196.342422,271.312744 
	C194.094131,267.759735 191.899628,264.291718 189.631027,260.706604 
	C191.597961,258.565582 193.445053,256.555084 195.292130,254.544540 
	C194.948410,254.134766 194.604691,253.724976 194.260956,253.315201 
	C191.402054,255.531525 188.543137,257.747864 185.535294,260.079651 
	C185.157349,255.470795 184.813400,251.276398 183.536331,247.003998 
M214.096771,257.482330 
	C209.952225,253.423218 205.003845,252.841400 201.395462,255.988983 
	C198.390533,258.610199 197.813263,265.402130 200.305496,268.812592 
	C202.702347,272.092499 207.669037,273.014008 211.477112,270.885406 
	C215.362656,268.713501 216.310577,264.714142 214.096771,257.482330 
M237.157684,263.487396 
	C237.829666,266.294739 235.532883,270.001801 240.284439,272.941650 
	C240.284439,268.330170 239.791656,264.780487 240.487976,261.481842 
	C240.847458,259.778839 243.319489,258.521790 244.837006,257.063232 
	C246.159134,258.625000 248.300583,260.033813 248.626801,261.781494 
	C249.239563,265.064178 248.803360,268.542633 248.803360,273.102295 
	C250.487640,271.711761 251.678864,271.192413 251.693161,270.642517 
	C251.800888,266.498810 252.038788,262.302979 251.518326,258.214844 
	C251.050247,254.538116 247.912277,253.797333 244.677109,254.003098 
	C242.393890,254.148331 240.124390,254.509201 237.157715,254.854141 
	C237.157715,256.990784 237.157715,259.759308 237.157684,263.487396 
M120.165939,266.413910 
	C120.166115,264.256348 120.235611,262.096069 120.151695,259.941772 
	C119.989471,255.777023 117.386658,253.532501 113.409744,253.998795 
	C111.003746,254.280930 108.592834,254.521240 106.221344,254.776306 
	C106.221344,260.216766 106.221344,266.070038 106.221344,271.923309 
	C106.611801,272.053986 107.002251,272.184662 107.392708,272.315338 
	C107.868500,271.411285 108.677246,270.535004 108.755508,269.597717 
	C108.962013,267.124451 108.822227,264.624084 108.874817,262.135651 
	C108.940331,259.036377 110.378838,256.569855 113.592529,257.286377 
	C115.063263,257.614288 116.594986,260.226898 117.022453,262.055054 
	C117.611504,264.574249 117.040657,267.344116 117.271637,269.979889 
	C117.342590,270.789520 118.412628,271.511597 119.893745,273.354523 
	C120.033333,270.277771 120.099495,268.819427 120.165939,266.413910 
M161.948593,254.051666 
	C159.691711,254.266403 157.434830,254.481140 155.230286,254.690887 
	C155.230286,260.207764 155.230286,266.069000 155.230286,271.930237 
	C155.625885,272.057159 156.021484,272.184113 156.417084,272.311066 
	C156.884857,271.399750 157.682114,270.514832 157.757538,269.572144 
	C157.969223,266.926880 157.817368,264.254944 157.932098,261.598846 
	C158.060822,258.618896 159.766830,256.566772 162.648087,257.264069 
	C164.081741,257.611023 165.657822,259.941193 166.006088,261.616119 
	C166.569946,264.327881 166.040436,267.250092 166.272736,270.058624 
	C166.336761,270.832642 167.465744,271.518555 168.106064,272.244904 
	C169.166092,268.044342 169.034943,264.412354 169.198944,260.793762 
	C169.408661,256.166687 167.254837,254.005020 161.948593,254.051666 
M219.874939,259.838135 
	C219.898468,262.170654 219.998901,264.505493 219.929169,266.835236 
	C219.792908,271.388641 221.990479,272.615295 226.189453,271.549500 
	C222.601013,264.189972 222.617737,264.196747 225.882324,256.147156 
	C226.078812,255.662628 225.839584,254.834366 225.527390,254.340271 
	C224.350403,252.477478 223.059357,250.686768 221.577393,248.528870 
	C220.524704,250.455978 219.138168,252.994232 217.712723,255.603714 
	C218.417114,256.690033 219.143433,257.810150 219.874939,259.838135 
M229.150757,267.294128 
	C229.471573,268.938080 229.792374,270.582062 230.113190,272.226013 
	C230.667053,272.116394 231.220917,272.006744 231.774780,271.897125 
	C231.774780,265.955231 231.774780,260.013367 231.774780,254.071503 
	C227.660080,257.632446 229.836548,262.245911 229.150757,267.294128 
M174.667633,255.702042 
	C174.923248,261.137695 174.053940,266.697021 176.205063,271.992523 
	C177.282150,266.397125 177.309311,260.851990 177.177017,255.310623 
	C177.172043,255.101761 175.621017,254.929794 174.667633,255.702042 
M210.867981,174.121490 
	C209.352066,174.629074 207.836136,175.136658 206.320221,175.644241 
	C206.400513,175.974258 206.480804,176.304291 206.561081,176.634308 
	C208.406281,176.634308 210.251480,176.634308 212.447159,176.634308 
	C212.876282,174.707382 213.326584,172.685410 213.776886,170.663437 
	C213.494263,170.614746 213.211655,170.566071 212.929031,170.517380 
	C212.360336,171.558533 211.791641,172.599701 210.867981,174.121490 
M210.410034,103.717232 
	C211.298172,105.672874 212.186310,107.628510 213.211960,109.886963 
	C216.290604,105.930862 213.992416,104.439751 210.410034,103.717232 
M138.859009,131.664627 
	C139.036453,129.970535 139.213913,128.276443 139.391357,126.582352 
	C139.039047,126.584625 138.686752,126.586891 138.334442,126.589157 
	C138.334442,128.397415 138.334442,130.205688 138.859009,131.664627 
M213.971649,111.781898 
	C213.854675,112.329483 213.737717,112.877060 213.620758,113.424644 
	C213.911118,113.419746 214.451431,113.439224 214.454636,113.406334 
	C214.510071,112.837639 214.499420,112.262505 213.971649,111.781898 
M140.700729,114.572556 
	C140.988739,114.297440 141.276749,114.022324 141.564774,113.747215 
	C141.450745,113.628189 141.243896,113.399338 141.236053,113.405960 
	C140.932404,113.662590 140.646957,113.940735 140.700729,114.572556 
M148.652603,176.916977 
	C148.979630,176.614868 149.306671,176.312759 149.633713,176.010651 
	C149.365677,175.906174 148.920273,175.651398 148.859772,175.722794 
	C148.570160,176.064529 148.384811,176.494614 148.652603,176.916977 
M202.202560,177.610397 
	C202.206879,177.214203 202.211197,176.817993 202.215500,176.421799 
	C202.051041,176.420364 201.743683,176.407883 201.742813,176.419113 
	C201.712280,176.813477 201.710541,177.210068 202.202560,177.610397 
M169.787888,179.879135 
	C169.901642,179.767334 170.074371,179.670670 170.108337,179.538391 
	C170.130814,179.450806 169.958725,179.216019 169.866241,179.211792 
	C169.223389,179.182510 168.578598,179.196335 167.934418,179.196335 
	C167.931656,179.369720 167.928894,179.543106 167.926132,179.716507 
	C168.370361,179.800583 168.814590,179.884659 169.787888,179.879135 
M153.661667,177.375000 
	C153.586044,177.118011 153.510422,176.861008 153.434799,176.604019 
	C153.149597,176.882904 152.864380,177.161774 152.579178,177.440659 
	C152.834320,177.522461 153.089462,177.604279 153.661667,177.375000 
M216.840637,148.047318 
	C216.586807,148.198822 216.203003,148.300842 216.120499,148.517578 
	C216.055145,148.689285 216.359268,149.001617 216.499313,149.251511 
	C216.639832,149.001312 216.780334,148.751114 216.840637,148.047318 
M216.531555,130.755142 
	C216.403122,131.147751 216.253525,131.535629 216.164246,131.936951 
	C216.146576,132.016434 216.360580,132.147446 216.467743,132.254700 
	C216.595978,131.862122 216.724228,131.469528 216.531555,130.755142 
M138.001373,106.709312 
	C137.765991,106.784195 137.530594,106.859077 137.295212,106.933968 
	C137.560257,107.196457 137.825287,107.458946 138.090332,107.721443 
	C138.163177,107.485474 138.236038,107.249504 138.001373,106.709312 
M214.525009,167.622528 
	C214.469940,167.837677 214.414856,168.052841 214.359787,168.268005 
	C214.495407,168.129684 214.631012,167.991364 214.525009,167.622528 
M215.591568,174.516556 
	C215.591568,174.516556 215.476517,174.586349 215.591568,174.516556 
z"/>
<path fill="#F9F9F9" opacity="1.000000" stroke="none" 
	d="
M181.513794,108.390312 
	C185.003876,109.922531 188.583191,111.281364 191.965836,113.022331 
	C199.476898,116.888084 203.912033,123.032341 204.405716,131.565063 
	C204.698929,136.632767 204.459381,141.731277 203.319763,147.466980 
	C200.514282,143.676254 197.708801,139.885513 194.903320,136.094772 
	C194.476257,136.235443 194.049194,136.376099 193.622131,136.516754 
	C194.531784,139.425156 195.140686,142.476608 196.436615,145.201279 
	C197.705292,147.868637 199.367081,150.501450 201.414276,152.606918 
	C203.881927,155.144821 205.643784,157.518250 202.750427,160.562592 
	C199.956467,163.502335 196.470016,164.262024 192.811264,162.099548 
	C191.254623,161.179520 189.881454,159.917572 188.519897,158.704391 
	C181.931824,152.834244 175.376038,146.927856 168.369247,140.640808 
	C167.383911,140.235855 166.838120,140.224396 166.292343,140.212936 
	C166.604752,140.670639 166.917175,141.128326 167.229584,141.586029 
	C168.140732,146.348969 169.541199,151.081818 169.836380,155.882629 
	C170.187439,161.591919 170.620667,167.032547 174.937958,171.914719 
	C174.953796,172.623245 174.905365,172.784622 174.856949,172.945984 
	C169.868362,170.449173 164.638733,168.332092 159.953293,165.357742 
	C154.320419,161.781921 151.275742,156.228424 151.030731,149.470535 
	C150.835114,144.075150 150.991241,138.667007 151.949509,132.755585 
	C154.617966,136.496780 157.286423,140.237976 159.954895,143.979172 
	C160.409286,143.842911 160.863678,143.706635 161.318085,143.570358 
	C160.722977,141.439056 160.456985,139.137115 159.460022,137.214142 
	C157.714462,133.847260 155.956528,130.299103 153.392548,127.596474 
	C150.773376,124.835632 150.389542,122.500870 152.793472,119.921852 
	C155.348251,117.181000 158.675934,115.683357 162.121262,118.091644 
	C165.506866,120.458160 168.508423,123.382774 171.625137,126.123177 
	C176.267288,130.204849 180.862534,134.339828 186.041977,138.057556 
	C184.994431,128.305511 187.640411,118.216293 181.176392,109.244774 
	C181.245499,108.738640 181.513794,108.390312 181.513794,108.390312 
M192.072159,130.719986 
	C192.598938,132.110031 193.125702,133.500076 193.652481,134.890121 
	C194.225510,134.578537 194.798523,134.266968 195.371552,133.955383 
	C194.449936,132.668381 193.528320,131.381363 192.072159,130.719986 
M161.346344,148.747208 
	C161.519791,147.892075 161.708679,147.039108 161.830978,146.176743 
	C161.838882,146.121017 161.333771,145.992538 161.067322,145.897888 
	C161.003632,146.591934 160.939941,147.285980 161.346344,148.747208 
M186.500000,139.000000 
	C186.633331,138.800003 186.766663,138.599991 186.899994,138.399994 
	C186.599991,138.433334 186.300003,138.466675 186.500000,139.000000 
z"/>
<path fill="#F3F4F3" opacity="1.000000" stroke="none" 
	d="
M146.021042,179.935104 
	C150.378922,186.505264 153.892883,193.888336 159.273071,199.473770 
	C169.971054,210.579865 184.540482,210.746613 195.547989,199.966537 
	C200.863281,194.761063 204.425293,187.765305 209.138275,181.177338 
	C209.673508,180.804520 209.851669,180.834564 210.029816,180.864624 
	C206.279663,195.559341 199.429031,208.134430 184.701401,214.243362 
	C175.547745,218.040237 167.432770,214.501694 160.591644,208.085846 
	C152.419037,200.421295 147.728943,190.637207 144.936554,179.951035 
	C145.670532,179.829865 145.845795,179.882477 146.021042,179.935104 
z"/>
<path fill="#F4F5F4" opacity="1.000000" stroke="none" 
	d="
M145.309204,101.010033 
	C145.097717,100.227715 144.506393,99.308472 144.731644,98.683601 
	C148.191574,89.086258 152.489517,79.940804 159.925842,72.675697 
	C170.924561,61.930222 184.846695,61.384201 195.101974,72.744591 
	C201.075409,79.361725 204.930420,87.922409 209.494751,95.750786 
	C210.289215,97.113426 209.869797,99.183830 210.759018,100.400635 
	C206.305298,94.141373 202.483704,87.287689 197.269821,81.743286 
	C185.434814,69.158005 169.645294,69.182526 157.935486,81.930527 
	C152.859604,87.456444 149.450882,94.513763 145.354492,101.069824 
	C145.424088,101.264168 145.309204,101.010033 145.309204,101.010033 
z"/>
<path fill="#F3F4F3" opacity="1.000000" stroke="none" 
	d="
M219.001877,107.803146 
	C232.561295,111.253181 244.007095,117.899261 250.859726,130.511063 
	C255.034943,138.195251 253.877548,146.084534 248.914719,153.156815 
	C241.588974,163.596329 230.707367,168.900238 219.088181,172.965591 
	C218.282028,173.247681 217.262161,172.918961 217.039932,172.908173 
	C222.708405,169.146698 229.232895,165.741226 234.640930,161.048981 
	C248.816315,148.749817 249.031189,132.076630 235.079422,119.564941 
	C230.109131,115.107674 223.727386,112.224304 218.192474,108.285599 
	C218.597290,107.900185 218.799576,107.851662 219.001877,107.803146 
z"/>
<path fill="#F4F5F4" opacity="1.000000" stroke="none" 
	d="
M135.972443,171.921631 
	C129.852844,169.267654 123.184464,167.441437 117.711052,163.812759 
	C96.854477,149.985596 96.891235,130.198776 117.658165,116.309380 
	C122.363152,113.162582 127.986137,111.388367 133.592865,108.989731 
	C133.999161,108.997108 133.956879,109.015152 133.956879,109.015152 
	C132.751846,110.016762 131.653534,111.197426 130.323837,111.989853 
	C123.532181,116.037300 117.435005,120.810219 113.463531,127.824280 
	C107.917595,137.619019 108.732033,148.567062 117.127792,157.192184 
	C122.339447,162.546204 129.194672,166.300385 135.654053,171.120041 
	C135.995911,171.467438 135.972443,171.921631 135.972443,171.921631 
z"/>
<path fill="#EDEFED" opacity="1.000000" stroke="none" 
	d="
M123.965775,262.184875 
	C125.405556,255.878479 128.996811,253.122314 134.006851,254.072098 
	C138.633072,254.949142 141.296539,258.858429 140.809723,264.057007 
	C140.349930,268.966980 137.148270,271.999329 132.384048,272.037079 
	C127.208542,272.078094 124.417366,268.948395 123.965775,262.184875 
M127.901955,266.408264 
	C129.789505,269.284058 132.897812,270.247253 135.028610,267.998260 
	C136.672516,266.263214 137.330078,262.672516 136.851685,260.213104 
	C136.588913,258.862152 132.226028,256.792084 131.199432,257.432159 
	C129.253876,258.645233 128.316422,261.542969 127.113998,263.822021 
	C126.876701,264.271790 127.332802,265.087402 127.901955,266.408264 
z"/>
<path fill="#F5F6F5" opacity="1.000000" stroke="none" 
	d="
M184.002884,247.042999 
	C184.813400,251.276398 185.157349,255.470795 185.535294,260.079651 
	C188.543137,257.747864 191.402054,255.531525 194.260956,253.315201 
	C194.604691,253.724976 194.948410,254.134766 195.292130,254.544540 
	C193.445053,256.555084 191.597961,258.565582 189.631027,260.706604 
	C191.899628,264.291718 194.094131,267.759735 196.342422,271.312744 
	C193.705566,271.687286 193.705566,271.687286 186.739258,262.737549 
	C185.621964,266.301483 184.681442,269.301544 183.740921,272.301605 
	C183.163895,272.116364 182.586868,271.931122 182.009842,271.745880 
	C182.009842,263.983490 181.982178,256.220795 182.075272,248.459534 
	C182.081177,247.968582 183.027496,247.488922 184.002884,247.042999 
z"/>
<path fill="#F3F4F3" opacity="1.000000" stroke="none" 
	d="
M214.298950,257.804596 
	C216.310577,264.714142 215.362656,268.713501 211.477112,270.885406 
	C207.669037,273.014008 202.702347,272.092499 200.305496,268.812592 
	C197.813263,265.402130 198.390533,258.610199 201.395462,255.988983 
	C205.003845,252.841400 209.952225,253.423218 214.298950,257.804596 
M210.871033,267.494629 
	C211.441696,265.989685 212.513184,264.473450 212.479660,262.982086 
	C212.407913,259.792114 211.097839,257.123810 207.305191,257.039886 
	C203.585190,256.957550 202.014938,259.240753 201.825195,262.638885 
	C201.536758,267.804932 204.886841,269.891907 210.871033,267.494629 
z"/>
<path fill="#EAECEA" opacity="1.000000" stroke="none" 
	d="
M237.157700,263.007629 
	C237.157715,259.759308 237.157715,256.990784 237.157715,254.854141 
	C240.124390,254.509201 242.393890,254.148331 244.677109,254.003098 
	C247.912277,253.797333 251.050247,254.538116 251.518326,258.214844 
	C252.038788,262.302979 251.800888,266.498810 251.693161,270.642517 
	C251.678864,271.192413 250.487640,271.711761 248.803360,273.102295 
	C248.803360,268.542633 249.239563,265.064178 248.626801,261.781494 
	C248.300583,260.033813 246.159134,258.625000 244.837006,257.063232 
	C243.319489,258.521790 240.847458,259.778839 240.487976,261.481842 
	C239.791656,264.780487 240.284439,268.330170 240.284439,272.941650 
	C235.532883,270.001801 237.829666,266.294739 237.157700,263.007629 
z"/>
<path fill="#EEF0EF" opacity="1.000000" stroke="none" 
	d="
M120.165794,266.887482 
	C120.099495,268.819427 120.033333,270.277771 119.893745,273.354523 
	C118.412628,271.511597 117.342590,270.789520 117.271637,269.979889 
	C117.040657,267.344116 117.611504,264.574249 117.022453,262.055054 
	C116.594986,260.226898 115.063263,257.614288 113.592529,257.286377 
	C110.378838,256.569855 108.940331,259.036377 108.874817,262.135651 
	C108.822227,264.624084 108.962013,267.124451 108.755508,269.597717 
	C108.677246,270.535004 107.868500,271.411285 107.392708,272.315338 
	C107.002251,272.184662 106.611801,272.053986 106.221344,271.923309 
	C106.221344,266.070038 106.221344,260.216766 106.221344,254.776306 
	C108.592834,254.521240 111.003746,254.280930 113.409744,253.998795 
	C117.386658,253.532501 119.989471,255.777023 120.151695,259.941772 
	C120.235611,262.096069 120.166115,264.256348 120.165794,266.887482 
z"/>
<path fill="#EEF0EF" opacity="1.000000" stroke="none" 
	d="
M162.341278,254.013519 
	C167.254837,254.005020 169.408661,256.166687 169.198944,260.793762 
	C169.034943,264.412354 169.166092,268.044342 168.106064,272.244904 
	C167.465744,271.518555 166.336761,270.832642 166.272736,270.058624 
	C166.040436,267.250092 166.569946,264.327881 166.006088,261.616119 
	C165.657822,259.941193 164.081741,257.611023 162.648087,257.264069 
	C159.766830,256.566772 158.060822,258.618896 157.932098,261.598846 
	C157.817368,264.254944 157.969223,266.926880 157.757538,269.572144 
	C157.682114,270.514832 156.884857,271.399750 156.417084,272.311066 
	C156.021484,272.184113 155.625885,272.057159 155.230286,271.930237 
	C155.230286,266.069000 155.230286,260.207764 155.230286,254.690887 
	C157.434830,254.481140 159.691711,254.266403 162.341278,254.013519 
z"/>
<path fill="#FDFDFD" opacity="1.000000" stroke="none" 
	d="
M219.872345,259.384216 
	C219.143433,257.810150 218.417114,256.690033 217.712723,255.603714 
	C219.138168,252.994232 220.524704,250.455978 221.577393,248.528870 
	C223.059357,250.686768 224.350403,252.477478 225.527390,254.340271 
	C225.839584,254.834366 226.078812,255.662628 225.882324,256.147156 
	C222.617737,264.196747 222.601013,264.189972 226.189453,271.549500 
	C221.990479,272.615295 219.792908,271.388641 219.929169,266.835236 
	C219.998901,264.505493 219.898468,262.170654 219.872345,259.384216 
z"/>
<path fill="#E8EAE8" opacity="1.000000" stroke="none" 
	d="
M229.150772,266.818909 
	C229.836548,262.245911 227.660080,257.632446 231.774780,254.071503 
	C231.774780,260.013367 231.774780,265.955231 231.774780,271.897125 
	C231.220917,272.006744 230.667053,272.116394 230.113190,272.226013 
	C229.792374,270.582062 229.471573,268.938080 229.150772,266.818909 
z"/>
<path fill="#FEFEFE" opacity="1.000000" stroke="none" 
	d="
M174.729034,255.221329 
	C175.621017,254.929794 177.172043,255.101761 177.177017,255.310623 
	C177.309311,260.851990 177.282150,266.397125 176.205063,271.992523 
	C174.053940,266.697021 174.923248,261.137695 174.729034,255.221329 
z"/>
<path fill="#2D442E" opacity="1.000000" stroke="none" 
	d="
M211.045471,173.881165 
	C211.791641,172.599701 212.360336,171.558533 212.929031,170.517380 
	C213.211655,170.566071 213.494263,170.614746 213.776886,170.663437 
	C213.326584,172.685410 212.876282,174.707382 212.447159,176.634308 
	C210.251480,176.634308 208.406281,176.634308 206.561081,176.634308 
	C206.480804,176.304291 206.400513,175.974258 206.320221,175.644241 
	C207.836136,175.136658 209.352066,174.629074 211.045471,173.881165 
z"/>
<path fill="#2D442E" opacity="1.000000" stroke="none" 
	d="
M136.033722,172.281586 
	C135.972443,171.921631 135.995911,171.467438 135.978043,171.240753 
	C138.482483,171.888596 141.004791,172.763138 143.621933,173.670578 
	C142.952362,176.237000 141.074280,176.152618 136.033722,172.281586 
z"/>
<path fill="#2D442E" opacity="1.000000" stroke="none" 
	d="
M210.643341,103.490860 
	C213.992416,104.439751 216.290604,105.930862 213.211960,109.886963 
	C212.186310,107.628510 211.298172,105.672874 210.643341,103.490860 
z"/>
<path fill="#2D442E" opacity="1.000000" stroke="none" 
	d="
M138.596725,131.839294 
	C138.334442,130.205688 138.334442,128.397415 138.334442,126.589157 
	C138.686752,126.586891 139.039047,126.584625 139.391357,126.582352 
	C139.213913,128.276443 139.036453,129.970535 138.596725,131.839294 
z"/>
<path fill="#2D442E" opacity="1.000000" stroke="none" 
	d="
M141.996338,107.996338 
	C142.138031,106.794228 142.279739,105.592110 142.421432,104.389999 
	C142.810638,104.459976 143.199844,104.529961 143.589035,104.599937 
	C143.257690,105.711319 142.926361,106.822701 142.297516,107.967041 
	C142.000000,108.000000 141.996338,107.996338 141.996338,107.996338 
z"/>
<path fill="#2D442E" opacity="1.000000" stroke="none" 
	d="
M218.953857,107.512375 
	C218.799576,107.851662 218.597290,107.900185 218.083557,107.929695 
	C217.516861,107.326576 217.261658,106.742455 217.006439,106.158340 
	C217.639572,106.512764 218.272720,106.867188 218.953857,107.512375 
z"/>
<path fill="#2D442E" opacity="1.000000" stroke="none" 
	d="
M214.237427,111.735336 
	C214.499420,112.262505 214.510071,112.837639 214.454636,113.406334 
	C214.451431,113.439224 213.911118,113.419746 213.620758,113.424644 
	C213.737717,112.877060 213.854675,112.329483 214.237427,111.735336 
z"/>
<path fill="#2D442E" opacity="1.000000" stroke="none" 
	d="
M145.980560,179.642105 
	C145.845795,179.882477 145.670532,179.829865 145.222565,179.746307 
	C144.389969,179.192078 143.830093,178.668793 143.270233,178.145493 
	C143.440094,177.938965 143.609970,177.732452 143.779831,177.525925 
	C144.499924,178.133652 145.220001,178.741379 145.980560,179.642105 
z"/>
<path fill="#2D442E" opacity="1.000000" stroke="none" 
	d="
M210.196381,180.645569 
	C209.851669,180.834564 209.673508,180.804520 209.231323,180.835571 
	C209.603546,180.054947 210.239792,179.213226 210.876053,178.371521 
	C211.144882,178.595581 211.413727,178.819656 211.682556,179.043732 
	C211.242691,179.504654 210.802826,179.965591 210.196381,180.645569 
z"/>
<path fill="#2D442E" opacity="1.000000" stroke="none" 
	d="
M133.989380,109.017639 
	C134.262909,108.583511 134.546188,108.128860 134.829468,107.674210 
	C135.132156,108.005486 135.434830,108.336761 135.737518,108.668037 
	C135.312927,108.840355 134.888321,109.012672 134.210297,109.100067 
	C133.956879,109.015152 133.999161,108.997108 133.989380,109.017639 
z"/>
<path fill="#2D442E" opacity="1.000000" stroke="none" 
	d="
M140.529907,114.394295 
	C140.646957,113.940735 140.932404,113.662590 141.236053,113.405960 
	C141.243896,113.399338 141.450745,113.628189 141.564774,113.747215 
	C141.276749,114.022324 140.988739,114.297440 140.529907,114.394295 
z"/>
<path fill="#2D442E" opacity="1.000000" stroke="none" 
	d="
M148.407501,176.905136 
	C148.384811,176.494614 148.570160,176.064529 148.859772,175.722794 
	C148.920273,175.651398 149.365677,175.906174 149.633713,176.010651 
	C149.306671,176.312759 148.979630,176.614868 148.407501,176.905136 
z"/>
<path fill="#2D442E" opacity="1.000000" stroke="none" 
	d="
M201.953644,177.608368 
	C201.710541,177.210068 201.712280,176.813477 201.742813,176.419113 
	C201.743683,176.407883 202.051041,176.420364 202.215500,176.421799 
	C202.211197,176.817993 202.206879,177.214203 201.953644,177.608368 
z"/>
<path fill="#2D442E" opacity="1.000000" stroke="none" 
	d="
M169.523346,179.923935 
	C168.814590,179.884659 168.370361,179.800583 167.926132,179.716507 
	C167.928894,179.543106 167.931656,179.369720 167.934418,179.196335 
	C168.578598,179.196335 169.223389,179.182510 169.866241,179.211792 
	C169.958725,179.216019 170.130814,179.450806 170.108337,179.538391 
	C170.074371,179.670670 169.901642,179.767334 169.523346,179.923935 
z"/>
<path fill="#2D442E" opacity="1.000000" stroke="none" 
	d="
M144.983765,101.030716 
	C145.309204,101.010033 145.424088,101.264168 145.348236,101.380943 
	C144.806778,101.849548 144.341156,102.201378 143.875549,102.553200 
	C143.757751,102.291672 143.480103,101.863945 143.549576,101.797127 
	C143.865753,101.493027 144.279617,101.290474 144.983765,101.030716 
z"/>
<path fill="#2D442E" opacity="1.000000" stroke="none" 
	d="
M140.970627,108.029823 
	C140.679474,107.358208 140.388321,106.686600 140.097153,106.014984 
	C140.309479,105.946838 140.521805,105.878700 140.734131,105.810555 
	C140.827896,106.332672 140.921677,106.854782 141.007843,107.688347 
	C141.000214,107.999802 140.970627,108.029823 140.970627,108.029823 
z"/>
<path fill="#2D442E" opacity="1.000000" stroke="none" 
	d="
M188.011185,179.008667 
	C187.349762,179.303574 186.688339,179.598480 186.026917,179.893387 
	C185.958466,179.681519 185.890015,179.469635 185.821564,179.257767 
	C186.346725,179.170456 186.871887,179.083160 187.698517,178.997925 
	C188.000000,179.000000 188.011185,179.008667 188.011185,179.008667 
z"/>
<path fill="#2D442E" opacity="1.000000" stroke="none" 
	d="
M153.503143,177.530548 
	C153.089462,177.604279 152.834320,177.522461 152.579178,177.440659 
	C152.864380,177.161774 153.149597,176.882904 153.434799,176.604019 
	C153.510422,176.861008 153.586044,177.118011 153.503143,177.530548 
z"/>
<path fill="#2D442E" opacity="1.000000" stroke="none" 
	d="
M216.880737,148.274124 
	C216.780334,148.751114 216.639832,149.001312 216.499329,149.251511 
	C216.359268,149.001617 216.055145,148.689285 216.120499,148.517578 
	C216.203003,148.300842 216.586807,148.198822 216.880737,148.274124 
z"/>
<path fill="#2D442E" opacity="1.000000" stroke="none" 
	d="
M216.692017,130.916046 
	C216.724228,131.469528 216.595978,131.862122 216.467743,132.254700 
	C216.360580,132.147446 216.146576,132.016434 216.164246,131.936951 
	C216.253525,131.535629 216.403122,131.147751 216.692017,130.916046 
z"/>
<path fill="#2D442E" opacity="1.000000" stroke="none" 
	d="
M138.155121,106.861420 
	C138.236038,107.249504 138.163177,107.485474 138.090332,107.721443 
	C137.825287,107.458946 137.560257,107.196457 137.295212,106.933960 
	C137.530594,106.859077 137.765991,106.784195 138.155121,106.861420 
z"/>
<path fill="#2D442E" opacity="1.000000" stroke="none" 
	d="
M175.109467,172.952133 
	C174.905365,172.784622 174.953796,172.623245 175.103088,172.230133 
	C175.559204,172.228104 175.914474,172.457825 176.269730,172.687546 
	C175.967148,172.777802 175.664566,172.868042 175.109467,172.952133 
z"/>
<path fill="#2D442E" opacity="1.000000" stroke="none" 
	d="
M214.645813,167.737793 
	C214.631012,167.991364 214.495407,168.129684 214.359772,168.268005 
	C214.414856,168.052841 214.469940,167.837677 214.645813,167.737793 
z"/>
<path fill="#2D442E" opacity="1.000000" stroke="none" 
	d="
M141.015060,107.984833 
	C141.029907,107.969864 141.512970,107.990356 141.754654,107.993347 
	C141.996338,107.996338 142.000000,108.000000 142.001831,108.001831 
	C141.841110,108.437782 141.678558,108.871895 141.515991,109.306007 
	C141.351929,109.046272 141.187881,108.786545 140.997223,108.278320 
	C140.970627,108.029823 141.000214,107.999802 141.015060,107.984833 
z"/>
<path fill="#2D442E" opacity="1.000000" stroke="none" 
	d="
M187.995636,178.994431 
	C188.089691,178.957092 188.188095,178.925323 188.148834,178.951111 
	C188.011185,179.008667 188.000000,179.000000 187.995636,178.994431 
z"/>
<path fill="#2D442E" opacity="1.000000" stroke="none" 
	d="
M215.534042,174.551453 
	C215.476517,174.586349 215.591568,174.516556 215.534042,174.551453 
z"/>
<path fill="#F9F9F9" opacity="1.000000" stroke="none" 
	d="
M181.092987,108.896965 
	C180.717926,108.802208 180.495407,108.549126 180.272888,108.296051 
	C180.530075,108.236244 180.787262,108.176445 181.279114,108.253479 
	C181.513794,108.390312 181.245499,108.738640 181.092987,108.896965 
z"/>
<path fill="#2D442E" opacity="1.000000" stroke="none" 
	d="
M192.339432,130.407166 
	C193.528320,131.381363 194.449936,132.668381 195.371552,133.955383 
	C194.798523,134.266968 194.225510,134.578537 193.652481,134.890121 
	C193.125702,133.500076 192.598938,132.110031 192.339432,130.407166 
z"/>
<path fill="#2B422C" opacity="1.000000" stroke="none" 
	d="
M161.111298,148.363617 
	C160.939941,147.285980 161.003632,146.591934 161.067322,145.897888 
	C161.333771,145.992538 161.838882,146.121017 161.830978,146.176743 
	C161.708679,147.039108 161.519791,147.892075 161.111298,148.363617 
z"/>
<path fill="#2D442E" opacity="1.000000" stroke="none" 
	d="
M167.475861,141.401138 
	C166.917175,141.128326 166.604752,140.670639 166.292343,140.212936 
	C166.838120,140.224396 167.383911,140.235855 168.053833,140.524689 
	C168.026047,140.940125 167.874100,141.078186 167.475861,141.401138 
z"/>
<path fill="#2B422C" opacity="1.000000" stroke="none" 
	d="
M186.250000,138.750000 
	C186.300003,138.466675 186.599991,138.433334 186.899994,138.399994 
	C186.766663,138.599991 186.633331,138.800003 186.250000,138.750000 
z"/>
<path fill="#324732" opacity="1.000000" stroke="none" 
	d="
M127.685539,266.071289 
	C127.332802,265.087402 126.876701,264.271790 127.113998,263.822021 
	C128.316422,261.542969 129.253876,258.645233 131.199432,257.432159 
	C132.226028,256.792084 136.588913,258.862152 136.851685,260.213104 
	C137.330078,262.672516 136.672516,266.263214 135.028610,267.998260 
	C132.897812,270.247253 129.789505,269.284058 127.685539,266.071289 
z"/>
<path fill="#334833" opacity="1.000000" stroke="none" 
	d="
M210.576797,267.740417 
	C204.886841,269.891907 201.536758,267.804932 201.825195,262.638885 
	C202.014938,259.240753 203.585190,256.957550 207.305191,257.039886 
	C211.097839,257.123810 212.407913,259.792114 212.479660,262.982086 
	C212.513184,264.473450 211.441696,265.989685 210.576797,267.740417 
z"/>
</svg>