<?xml version="1.0" standalone="no"?>
<!DOCTYPE svg PUBLIC "-//W3C//DTD SVG 20010904//EN"
 "http://www.w3.org/TR/2001/REC-SVG-20010904/DTD/svg10.dtd">
<svg version="1.0" xmlns="http://www.w3.org/2000/svg"
 width="300.000000pt" height="300.000000pt" viewBox="0 0 300.000000 300.000000"
 preserveAspectRatio="xMidYMid meet">
<metadata>
Created by potrace 1.10, written by Peter Selinger 2001-2011
</metadata>
<g transform="translate(0.000000,300.000000) scale(0.100000,-0.100000)"
fill="#000000" stroke="none">
<path d="M1285 2980 c-277 -39 -559 -171 -777 -362 -235 -207 -388 -466 -470
-796 -30 -121 -33 -491 -4 -622 112 -515 480 -937 966 -1108 177 -62 274 -77
500 -77 177 1 219 4 305 23 284 65 513 186 712 375 230 219 369 462 439 762
25 109 28 138 28 320 1 174 -2 214 -23 305 -42 193 -110 358 -203 502 -221
339 -533 559 -928 655 -90 22 -132 26 -295 29 -104 1 -217 -1 -250 -6z m415
-35 c380 -63 677 -227 919 -510 105 -123 212 -319 269 -490 34 -103 72 -331
72 -434 0 -93 -26 -286 -51 -379 -36 -137 -114 -320 -163 -387 -13 -16 -25
-37 -28 -45 -9 -25 -119 -159 -185 -226 -162 -165 -386 -301 -603 -367 -110
-33 -159 -43 -308 -62 -126 -17 -164 -15 -322 11 -133 22 -169 30 -265 63
-433 144 -785 500 -924 931 -79 247 -99 481 -56 675 9 39 18 86 21 104 10 63
73 234 118 323 72 143 153 254 271 372 212 214 479 357 765 410 230 43 268 44
470 11z"/>
<path d="M1440 2496 c-76 -22 -93 -32 -142 -83 -48 -52 -84 -114 -118 -206
-20 -54 -21 -55 -86 -76 -105 -34 -216 -119 -255 -193 -70 -137 4 -281 191
-370 47 -22 96 -45 109 -51 15 -8 33 -35 50 -77 40 -98 65 -140 112 -188 111
-113 242 -114 353 -5 53 51 99 126 120 193 18 55 46 90 73 90 8 0 48 16 89 36
131 64 214 171 214 273 0 92 -96 208 -215 261 -137 61 -136 60 -160 126 -31
87 -66 143 -123 196 -76 71 -140 94 -212 74z m94 -37 c79 -22 185 -151 223
-272 17 -55 20 -58 67 -72 110 -33 235 -126 270 -200 20 -40 21 -115 3 -158
-31 -72 -173 -177 -282 -206 -38 -10 -41 -14 -59 -70 -10 -33 -40 -93 -66
-134 -113 -171 -248 -193 -372 -60 -48 52 -110 164 -123 220 -6 29 -13 35 -57
48 -111 33 -232 123 -272 202 -22 43 -20 115 3 161 38 74 155 160 268 196 45
15 53 21 58 49 14 66 86 186 142 237 72 66 120 80 197 59z"/>
<path d="M1392 2379 c-54 -27 -124 -105 -157 -176 -15 -30 -25 -57 -22 -59 2
-2 28 2 58 10 48 12 51 14 24 17 -41 5 -35 30 22 97 62 72 111 96 181 89 63
-7 105 -36 164 -113 45 -58 47 -74 11 -75 -22 0 -17 -4 21 -15 26 -9 50 -13
53 -10 11 11 -49 119 -94 167 -81 88 -173 111 -261 68z"/>
<path d="M1251 2129 c-25 -5 -48 -12 -52 -16 -3 -5 -10 -30 -13 -58 l-7 -50
19 40 c22 48 37 60 88 79 44 16 31 18 -35 5z"/>
<path d="M1674 2125 c53 -20 66 -32 93 -90 13 -27 21 -39 18 -25 -3 14 -8 42
-11 63 -7 42 -20 50 -94 60 l-45 6 39 -14z"/>
<path d="M1490 2125 c0 -3 26 -18 59 -34 72 -37 117 -74 138 -114 18 -35 32
-207 16 -207 -18 0 -57 65 -79 134 -17 53 -23 63 -24 41 -1 -77 67 -235 101
-235 14 0 0 -42 -19 -57 -38 -30 -66 -16 -185 93 -65 58 -117 102 -117 99 0
-3 8 -20 17 -38 10 -19 20 -66 23 -114 5 -68 10 -87 30 -108 13 -14 21 -27 18
-30 -8 -9 -130 58 -161 89 -16 16 -33 41 -39 55 -15 40 -23 201 -10 201 16 0
59 -77 83 -149 23 -69 34 -79 25 -23 -14 76 -48 160 -80 198 -26 31 -32 44
-25 61 8 23 38 43 63 43 16 0 113 -80 200 -164 53 -52 64 -55 41 -10 -8 16
-15 52 -15 79 0 68 -17 123 -46 152 -14 14 -27 23 -30 20 -3 -2 5 -28 16 -57
12 -29 20 -67 18 -83 l-3 -30 -73 62 c-87 72 -122 79 -174 33 -24 -22 -31 -36
-29 -60 1 -18 1 -42 0 -54 -1 -13 -2 -66 -3 -119 -1 -90 1 -98 29 -143 20 -31
49 -60 85 -82 73 -44 101 -50 128 -27 l22 18 -21 62 c-22 65 -20 100 5 86 8
-4 33 -25 55 -46 50 -46 96 -67 133 -60 37 7 71 46 70 80 -3 46 -2 74 4 158 7
96 -4 137 -50 191 -40 46 -124 94 -167 94 -16 0 -29 -2 -29 -5z"/>
<path d="M1112 2080 c-33 -16 -82 -48 -107 -71 -119 -110 -119 -238 -2 -346
41 -38 164 -109 173 -101 2 2 -3 24 -10 48 -11 38 -14 42 -23 25 -14 -25 -40
-14 -107 46 -119 106 -109 227 29 331 57 43 75 47 83 16 4 -17 8 -11 18 28 7
27 11 50 10 51 -1 1 -30 -11 -64 -27z"/>
<path d="M1796 2063 c8 -25 17 -49 21 -52 3 -3 3 2 0 12 -10 27 18 32 55 9 76
-48 138 -136 138 -197 0 -61 -74 -165 -143 -202 -32 -16 -63 -11 -51 9 4 8 3
9 -2 5 -9 -9 -35 -87 -28 -87 11 0 123 61 153 84 48 36 97 109 105 156 16 101
-54 206 -183 274 -38 20 -71 36 -74 36 -3 0 1 -21 9 -47z"/>
<path d="M1775 1658 c-11 -51 -50 -96 -95 -109 -58 -17 -42 -22 27 -9 l59 12
12 65 c13 67 10 102 -3 41z"/>
<path d="M1186 1610 c3 -25 8 -48 10 -52 6 -9 114 -31 121 -25 3 3 -13 10 -34
16 -42 12 -60 27 -87 76 l-17 30 7 -45z"/>
<path d="M1210 1525 c0 -23 59 -123 98 -166 103 -115 230 -119 339 -10 40 40
113 165 102 175 -2 3 -27 -1 -54 -9 -28 -7 -40 -14 -28 -14 12 -1 24 -5 27 -9
15 -25 -80 -138 -138 -166 -72 -34 -159 -12 -222 56 -67 72 -83 117 -41 119
21 1 21 1 -3 8 -52 16 -80 21 -80 16z"/>
<path d="M1443 952 c-13 -14 -17 -27 -14 -50 2 -10 -2 -11 -18 -3 -35 19 -118
14 -141 -9 -31 -31 -28 -129 4 -166 23 -28 24 -28 50 -10 22 14 30 15 42 5 18
-15 174 -20 192 -7 8 7 16 7 25 1 17 -14 166 -14 203 -1 25 9 36 8 53 -4 16
-11 33 -13 68 -7 27 4 58 5 71 2 14 -3 30 1 42 12 19 17 21 17 38 2 47 -43 87
2 80 88 -7 80 -33 105 -109 105 -48 0 -59 3 -64 19 -11 35 -32 45 -58 28 -15
-10 -29 -12 -38 -6 -21 13 -27 11 -54 -20 -23 -25 -31 -28 -74 -23 -28 2 -58
-1 -71 -8 -16 -9 -25 -9 -33 -1 -6 6 -21 11 -32 11 -14 0 -26 10 -33 25 -6 14
-17 26 -24 26 -58 5 -94 2 -105 -9z m101 -74 l-6 -63 34 33 c19 17 43 32 53
32 16 0 13 -5 -14 -27 l-33 -28 31 -42 c36 -50 37 -53 13 -53 -10 0 -26 15
-36 35 -23 42 -42 40 -38 -4 1 -24 -2 -31 -15 -31 -16 0 -18 12 -18 105 0 94
2 105 18 105 16 0 17 -6 11 -62z m316 27 c0 -16 6 -25 15 -25 8 0 15 -7 15
-15 0 -8 -7 -15 -15 -15 -11 0 -15 -12 -15 -44 0 -30 5 -46 15 -50 26 -9 16
-27 -12 -24 -26 3 -28 6 -31 58 -2 30 -9 61 -15 69 -9 11 -9 15 1 18 6 3 12
13 12 22 0 10 3 21 7 24 13 14 23 6 23 -18z m-463 -37 c20 -16 18 -138 -2
-138 -12 0 -15 13 -15 61 0 60 0 60 -27 57 -27 -3 -28 -6 -31 -60 -2 -43 -7
-58 -17 -58 -12 0 -15 16 -15 74 l0 73 47 1 c26 1 53 -4 60 -10z m83 -63 c0
-60 -3 -75 -15 -75 -12 0 -15 15 -15 75 0 60 3 75 15 75 12 0 15 -15 15 -75z
m300 53 c45 -48 13 -128 -52 -128 -46 0 -68 25 -68 76 0 33 5 46 22 58 32 23
74 20 98 -6z m160 -53 c0 -60 -3 -75 -15 -75 -12 0 -15 15 -15 75 0 60 3 75
15 75 12 0 15 -15 15 -75z m148 62 c6 -6 12 -40 14 -75 3 -55 1 -62 -15 -62
-16 0 -19 7 -17 48 4 71 3 74 -27 70 -27 -3 -28 -6 -31 -60 -2 -43 -7 -58 -17
-58 -12 0 -15 16 -15 74 l0 73 49 1 c28 1 53 -4 59 -11z"/>
<path d="M1690 825 c-14 -37 3 -65 40 -65 24 0 31 5 36 27 9 34 -6 57 -40 61
-20 3 -28 -2 -36 -23z"/>
<path d="M860 883 c-29 -37 -25 -133 8 -165 20 -20 22 -21 47 -4 25 17 28 17
46 0 16 -14 24 -15 44 -6 19 9 32 8 57 -2 46 -20 84 -9 117 32 39 47 36 104
-9 145 -34 31 -93 37 -125 13 -17 -12 -23 -12 -47 0 -15 8 -47 14 -72 14 -37
0 -48 -5 -66 -27z m127 -14 c20 -17 18 -139 -2 -139 -12 0 -15 13 -15 60 0 57
-1 60 -25 60 -32 0 -43 -23 -37 -76 4 -36 2 -44 -12 -44 -13 0 -16 12 -16 73
l0 73 47 2 c25 1 52 -3 60 -9z m161 -5 c17 -11 22 -25 22 -56 0 -52 -22 -78
-67 -78 -44 0 -73 30 -73 75 0 64 65 97 118 59z"/>
<path d="M1064 826 c-11 -45 -2 -61 35 -61 38 0 54 25 40 63 -12 33 -66 31
-75 -2z"/>
</g>
</svg>
